<svg width="32" height="32" viewBox="0 0 32 32" fill="none" xmlns="http://www.w3.org/2000/svg">
<g id="Catergories Chair by Streamlinehq" clip-path="url(#clip0_109782_29)">
<g id="Group">
<path id="Vector" d="M3.42829 17.1431H5.71401C6.32022 17.1431 6.9016 17.3839 7.33025 17.8125C7.75891 18.2412 7.99972 18.8226 7.99972 19.4288V30.8574H1.14258V19.4288C1.14258 18.8226 1.38339 18.2412 1.81205 17.8125C2.2407 17.3839 2.82208 17.1431 3.42829 17.1431V17.1431Z" stroke="white" stroke-width="3" stroke-linecap="round" stroke-linejoin="round"/>
<path id="Vector_2" d="M26.2857 17.1431H28.5714C29.1776 17.1431 29.759 17.3839 30.1877 17.8125C30.6163 18.2412 30.8571 18.8226 30.8571 19.4288V30.8574H24V19.4288C24 18.8226 24.2408 18.2412 24.6695 17.8125C25.0981 17.3839 25.6795 17.1431 26.2857 17.1431V17.1431Z" stroke="white" stroke-width="3" stroke-linecap="round" stroke-linejoin="round"/>
<path id="Vector_3" d="M8 30.8574H24" stroke="white" stroke-width="3" stroke-linecap="round" stroke-linejoin="round"/>
<path id="Vector_4" d="M5.71387 17.1429V12.5715C5.71387 10.7529 6.43631 9.00873 7.72228 7.72277C9.00824 6.4368 10.7524 5.71436 12.571 5.71436H19.4282C21.2468 5.71436 22.9909 6.4368 24.2769 7.72277C25.5628 9.00873 26.2853 10.7529 26.2853 12.5715V17.1429" stroke="white" stroke-width="3" stroke-linecap="round" stroke-linejoin="round"/>
<path id="Vector_5" d="M8 21.7144H24" stroke="white" stroke-width="3" stroke-linecap="round" stroke-linejoin="round"/>
</g>
</g>
<defs>
<clipPath id="clip0_109782_29">
<rect width="32" height="32" fill="white"/>
</clipPath>
</defs>
</svg>
