<svg width="24" height="24" viewBox="0 0 24 24" fill="none" xmlns="http://www.w3.org/2000/svg">
<g id="Shopping Cart 1 by Streamlinehq">
<g id="Group">
<path id="Vector" d="M20.9919 3H17.5304L16.3258 14.9768C16.2757 15.307 16.108 15.6079 15.8535 15.8242C15.5991 16.0405 15.2751 16.1575 14.9412 16.1538H6.21814C5.9162 16.1695 5.61741 16.086 5.36739 15.916C5.11737 15.746 4.92987 15.4988 4.83353 15.2122L2.99201 9.6738C2.92335 9.46557 2.90512 9.24402 2.93882 9.02738C2.97252 8.81073 3.05719 8.60518 3.18585 8.42765C3.31989 8.2389 3.49912 8.08677 3.70714 7.98518C3.91517 7.88359 4.14534 7.83578 4.37661 7.84612H17.0458" stroke="white" stroke-width="2" stroke-linecap="round" stroke-linejoin="round"/>
<path id="Vector_2" d="M6.45353 20.9998C6.83588 20.9998 7.14584 20.6899 7.14584 20.3075C7.14584 19.9252 6.83588 19.6152 6.45353 19.6152C6.07118 19.6152 5.76123 19.9252 5.76123 20.3075C5.76123 20.6899 6.07118 20.9998 6.45353 20.9998Z" stroke="white" stroke-width="2" stroke-linecap="round" stroke-linejoin="round"/>
<path id="Vector_3" d="M15.4535 20.9998C15.8359 20.9998 16.1458 20.6899 16.1458 20.3075C16.1458 19.9252 15.8359 19.6152 15.4535 19.6152C15.0712 19.6152 14.7612 19.9252 14.7612 20.3075C14.7612 20.6899 15.0712 20.9998 15.4535 20.9998Z" stroke="white" stroke-width="2" stroke-linecap="round" stroke-linejoin="round"/>
</g>
</g>
</svg>
